<?xml version="1.0" encoding="utf-8"?>
<!-- Generator: Adobe Illustrator 16.0.4, SVG Export Plug-In . SVG Version: 6.00 Build 0)  -->
<!DOCTYPE svg PUBLIC "-//W3C//DTD SVG 1.1//EN" "http://www.w3.org/Graphics/SVG/1.1/DTD/svg11.dtd">
<svg version="1.1" id="Layer_1" xmlns="http://www.w3.org/2000/svg" xmlns:xlink="http://www.w3.org/1999/xlink" x="0px" y="0px"
	 width="520.684px" height="123.437px" viewBox="0 0 520.684 123.437" enable-background="new 0 0 520.684 123.437"
	 xml:space="preserve">
<g>
	<path fill="#78B9E6" d="M390.52,0.658c8.43-2.85,18.169,3.95,18.39,12.83c0.76,7.63-5.53,14.82-13.13,15.36
		c-7.69,0.76-15.431-5.66-15.53-13.53C379.58,8.738,384.25,2.428,390.52,0.658z"/>
	<path fill="#78B9E6" d="M381.349,40.718c8.49,0.06,16.98,0.04,25.471,0.02c0.119,13.83,0.029,27.66,0.06,41.49
		c-5.02,0.12-10.03,0.17-15.04,0.22c0.021,12.739,5.89,25.439,16.11,33.17c4.97,4.14,11.25,5.99,17.36,7.7
		c-7.73,0.7-15.771,0.189-22.871-3.17c-9.439-4.261-16.189-13.17-19.1-22.961c-2.64-8.68-2.119-17.859-2.189-26.819
		C381.27,60.488,380.9,50.598,381.349,40.718z"/>
	<path fill="#78B9E6" d="M455.479,45.678c9.78-4.93,21.311-5.91,31.931-3.49c11.939,2.76,22.65,10.67,28.529,21.46
		c4.44,8.27,5.961,18.16,3.721,27.331c-2.71,12.229-11.63,22.62-22.85,27.959c-14.021,6.831-31.711,6.331-44.891-2.209
		c5.48-4.851,10.18-10.53,13.54-17.07c4.58,1.811,9.511,3.95,14.52,2.649c9.631-2.079,16.021-12.27,15.04-21.84
		c-0.629-8.919-7.6-17.68-16.84-18.5c-7.18-0.89-14.479,3.17-17.88,9.469c-1.739,3.331-2.51,7.041-3.38,10.661
		c-3.18,0.2-6.359,0.33-9.54,0.529c-1.04,6.671-2.909,14.08-9.04,17.891c-3.76,2.88-8.66,2.609-13.09,2.01
		c2.3-3.2,4.971-6.391,5.7-10.38c1.25-6.28,0.479-12.79,1.97-19.04C435.729,61.138,444.52,51.008,455.479,45.678z"/>
</g>
<g>
	<path fill="#EEE8D5" d="M244.419,9.628c8.04-0.03,16.08,0,24.11-0.03c0.25,37.4,0.14,74.8,0.061,112.201
		c-8.061,0.1-16.131,0.159-24.19-0.051C244.43,84.378,244.38,46.998,244.419,9.628z"/>
	<path fill="#EEE8D5" d="M29.55,14.948c13.07-2.26,27.01-1.32,39.17,4.23c-1.68,6.44-3.48,12.85-5.28,19.26
		c-8.73-3.35-18.2-6.04-27.61-4.31c-4.36,0.83-9.08,3.57-9.83,8.32c-0.76,3.79,1.58,7.43,4.7,9.38c7.24,4.73,15.89,6.49,23.48,10.52
		c7.46,3.76,14.5,9.61,17.21,17.78c3.29,10.07,1.57,21.94-5.37,30.11c-6.1,7.18-15.3,10.949-24.43,12.37
		c-14.01,2.06-28.64,0.3-41.59-5.521c1.38-6.739,3.02-13.42,4.839-20.05c11.11,4.761,23.82,8.66,35.811,5.03
		c6.12-1.57,9.69-9.11,6.44-14.681c-3.91-5.989-11.3-7.869-17.58-10.33c-9.48-3.489-19.1-8.589-24.61-17.39
		c-6.2-10.23-4.55-24.34,3.37-33.2C13.709,20.238,21.55,16.578,29.55,14.948z"/>
	<g>
		<path fill="#EEE8D5" d="M161.63,49.418c11.9-5.77,25.55-8.02,38.66-6.13c8.33,1.17,16.64,5.53,20.76,13.13
			c5.29,9.03,4.56,19.881,4.62,29.95c0.17,11.811-0.6,23.681,0.94,35.439c-7.27,0.051-14.54,0.25-21.8-0.17
			c-0.36-2.409-0.78-4.819-1.15-7.229c-4.66,4.26-10.18,7.91-16.57,8.74c-8.45,1.5-18-0.211-24.14-6.561
			c-7.27-6.92-8.54-18.409-4.85-27.43c2.6-6.25,8.05-10.91,14.11-13.68c9.21-4.23,19.5-5.101,29.51-5.28
			c-0.56-3.84-2.07-8.11-6.17-9.36c-9.83-3.37-20.54-0.07-29.5,4.35C164.45,59.968,162.91,54.728,161.63,49.418z M183.61,89.849
			c-4.66,3.5-5.02,11.67-0.05,15.05c5.54,3.409,13.42,0.979,16.76-4.44c2.79-4.51,1.64-10.1,1.82-15.13
			C195.83,85.788,188.87,85.849,183.61,89.849z"/>
	</g>
	<g>
		<path fill="#EEE8D5" d="M288.16,49.568c11.431-5.86,24.689-7.92,37.41-6.48c8.659,0.96,17.42,5.19,21.869,12.97
			c5.101,8.5,4.82,18.75,4.73,28.31c0.141,12.47-0.58,24.99,1,37.4c-7.23,0.14-14.48,0.239-21.699-0.09
			c-0.421-2.45-0.91-4.871-1.371-7.311c-4.42,4.3-9.829,7.76-16.02,8.71c-8.92,1.721-19.12-0.25-25.351-7.26
			c-9.25-9.95-7.75-27.57,2.94-35.931c10.27-8.22,24.03-9.39,36.69-9.76c-0.74-3.62-2.011-7.79-5.89-9.12
			c-9.931-3.71-20.83-0.22-29.95,4.17C291.07,59.968,289.54,54.788,288.16,49.568z M310.41,89.658
			c-4.79,3.311-5.221,11.41-0.59,15.029c5.14,3.57,12.689,1.521,16.369-3.259c3.701-4.5,2.24-10.721,2.391-16.061
			C322.39,85.778,315.64,85.858,310.41,89.658z"/>
	</g>
	<path fill="#EEE8D5" d="M92.78,58.958c6.6-9.03,17.41-14.28,28.36-15.62c8.9-1.07,18.16-0.6,26.6,2.6
		c-1.28,5.85-2.51,11.71-3.75,17.57c-7.61-1.8-16.12-3.44-23.43,0.25c-14.31,7.06-14.41,31.179-0.09,38.28
		c7.55,3.931,16.41,2.28,24.26,0.25c0.99,5.95,2.15,11.88,2.57,17.91c-10.83,3.53-22.63,4.28-33.77,1.87
		c-11.6-2.52-21.87-10.95-25.83-22.24C82.959,86.479,84.26,70.538,92.78,58.958z"/>
</g>
</svg>
