<?xml version="1.0" encoding="utf-8"?>
<!-- Generator: Adobe Illustrator 16.0.1, SVG Export Plug-In . SVG Version: 6.00 Build 0)  -->
<!DOCTYPE svg PUBLIC "-//W3C//DTD SVG 1.1//EN" "http://www.w3.org/Graphics/SVG/1.1/DTD/svg11.dtd">
<svg version="1.1" id="Capa_1" xmlns="http://www.w3.org/2000/svg" xmlns:xlink="http://www.w3.org/1999/xlink" x="0px" y="0px"
	 width="81.5px" height="65.333px" viewBox="0 0 81.5 65.333" enable-background="new 0 0 81.5 65.333" xml:space="preserve">
<rect display="none" fill="#002B36" width="81.5" height="65.333"/>
<path fill-rule="evenodd" clip-rule="evenodd" fill="#1C75BC" d="M-25.639-45.362c-0.084-0.128-0.167-0.255-0.25-0.383"/>
<path fill-rule="evenodd" clip-rule="evenodd" fill="#1C75BC" d="M158.029,155.468"/>
<path fill-rule="evenodd" clip-rule="evenodd" fill="#EDE8D5" d="M52.819,6.357c-0.102-0.12-0.176-0.19-0.205-0.19
	c-0.598,0.004-2.529,4.17-3.201,5.337c-3.987,6.907-7.738,12.567-14.094,18.148c-2.581,2.267-3.744,4.106-8.753,3.416
	c11.796-7.51,18.537-18.386,24.979-31.171c0.527-1.044,1.777,0.405,2.918,2.062"/>
<path fill-rule="evenodd" clip-rule="evenodd" fill="#EDE8D5" d="M56.157,11.523c4.205,6.779,8.129,12.319,14.656,17.698
	c2.648,2.185,3.871,3.986,8.855,3.139C67.643,25.224,60.565,14.564,53.723,1.988c-0.498-0.917-1.512,0.17-2.498,1.618"/>
<path fill-rule="evenodd" clip-rule="evenodd" fill="#EDE8D5" d="M43.22,14.28c-1.968-2.593-2.33,0.072-3.844,2.134
	c-3.069,4.177-8.771,9.792-13.665,13.237c-3.328,2.343-5.105,4.005-10.675,3.416c2.265-1.933,5.079-2.927,7.686-4.696
	c6.763-4.591,13.782-12.385,17.935-19.215c0.784-1.289,3.782,2.079,3.845,2.775C44.564,12.655,43.193,13.532,43.22,14.28z"/>
<path fill-rule="evenodd" clip-rule="evenodd" fill="#EDE8D5" d="M1.372,31.36c9.896-2.462,20.128-8.484,26.262-14.731
	c1.252-1.276,2.197,2.568,3.416,2.775c-0.871,0.917-2.12,3.111-2.989,1.068C23.629,24.5,17.914,28.017,11.621,30.72
	c-3.041,1.306-5.503,2.509-9.822,2.347l0.107-0.933L1.372,31.36z"/>
<path fill="#FFFFFF" fill-opacity="0.3" stroke="#EDE8D5" stroke-width="0.5" stroke-miterlimit="10" d="M5.979,50.282l-4.771-0.861
	c0.537-1.92,1.46-3.342,2.769-4.266c1.31-0.923,3.255-1.384,5.837-1.384c2.345,0,4.091,0.278,5.239,0.833
	c1.148,0.555,1.956,1.26,2.423,2.114c0.468,0.854,0.701,2.423,0.701,4.706l-0.056,6.137c0,1.746,0.084,3.034,0.252,3.863
	c0.168,0.829,0.483,1.718,0.945,2.666h-5.202c-0.138-0.349-0.306-0.867-0.505-1.553c-0.087-0.312-0.149-0.518-0.187-0.617
	c-0.898,0.873-1.859,1.527-2.882,1.964c-1.022,0.437-2.114,0.655-3.273,0.655c-2.046,0-3.658-0.555-4.836-1.665
	c-1.179-1.11-1.769-2.514-1.769-4.209c0-1.123,0.269-2.124,0.805-3.003c0.537-0.88,1.288-1.553,2.254-2.021s2.36-0.876,4.182-1.226
	c2.457-0.461,4.16-0.891,5.108-1.291V50.6c0-1.01-0.25-1.73-0.749-2.161s-1.44-0.646-2.825-0.646c-0.936,0-1.666,0.185-2.189,0.552
	S6.303,49.359,5.979,50.282z M13.014,54.548c-0.673,0.225-1.74,0.493-3.2,0.805C8.355,55.665,7.4,55.97,6.952,56.27
	c-0.686,0.486-1.029,1.104-1.029,1.852c0,0.736,0.274,1.372,0.823,1.908c0.549,0.537,1.247,0.805,2.095,0.805
	c0.947,0,1.852-0.312,2.713-0.936c0.636-0.474,1.054-1.054,1.254-1.74c0.137-0.449,0.206-1.303,0.206-2.563V54.548z"/>
<path fill="#FFFFFF" fill-opacity="0.3" stroke="#EDE8D5" stroke-width="0.5" stroke-miterlimit="10" d="M22.215,64.09V36.662h5.257
	v14.557l6.155-6.998h6.474L33.31,51.48l7.278,12.61h-5.669l-4.995-8.924l-2.451,2.563v6.361H22.215z"/>
<path fill="#FFFFFF" fill-opacity="0.3" stroke="#EDE8D5" stroke-width="0.5" stroke-miterlimit="10" d="M42.567,64.09V36.662h5.259
	v14.557l6.154-6.998h6.474l-6.791,7.259l7.277,12.61h-5.668l-4.996-8.924l-2.45,2.563v6.361H42.567z"/>
<path fill="#FFFFFF" fill-opacity="0.3" stroke="#EDE8D5" stroke-width="0.5" stroke-miterlimit="10" d="M67.035,50.282l-4.77-0.861
	c0.536-1.92,1.459-3.342,2.769-4.266c1.311-0.923,3.256-1.384,5.837-1.384c2.346,0,4.092,0.278,5.238,0.833
	c1.148,0.555,1.956,1.26,2.424,2.114c0.467,0.854,0.702,2.423,0.702,4.706l-0.057,6.137c0,1.746,0.083,3.034,0.252,3.863
	c0.169,0.829,0.484,1.718,0.945,2.666h-5.202c-0.137-0.349-0.305-0.867-0.504-1.553c-0.087-0.312-0.15-0.518-0.188-0.617
	c-0.896,0.873-1.857,1.527-2.88,1.964c-1.023,0.437-2.115,0.655-3.273,0.655c-2.046,0-3.66-0.555-4.838-1.665
	c-1.179-1.11-1.768-2.514-1.768-4.209c0-1.123,0.269-2.124,0.805-3.003c0.536-0.88,1.287-1.553,2.254-2.021s2.361-0.876,4.182-1.226
	c2.457-0.461,4.16-0.891,5.107-1.291V50.6c0-1.01-0.25-1.73-0.747-2.161c-0.5-0.43-1.441-0.646-2.827-0.646
	c-0.935,0-1.664,0.185-2.188,0.552C67.784,48.714,67.36,49.359,67.035,50.282z M74.07,54.548c-0.673,0.225-1.739,0.493-3.199,0.805
	c-1.459,0.312-2.413,0.617-2.862,0.917c-0.686,0.486-1.029,1.104-1.029,1.852c0,0.736,0.274,1.372,0.824,1.908
	c0.549,0.537,1.246,0.805,2.095,0.805c0.948,0,1.853-0.312,2.714-0.936c0.636-0.474,1.053-1.054,1.252-1.74
	c0.138-0.449,0.206-1.303,0.206-2.563V54.548z"/>
<g>
</g>
</svg>
