<?xml version="1.0" encoding="utf-8"?>
<!-- Generator: Adobe Illustrator 16.0.1, SVG Export Plug-In . SVG Version: 6.00 Build 0)  -->
<!DOCTYPE svg PUBLIC "-//W3C//DTD SVG 1.1//EN" "http://www.w3.org/Graphics/SVG/1.1/DTD/svg11.dtd">
<svg version="1.1" id="Layer_1" xmlns="http://www.w3.org/2000/svg" xmlns:xlink="http://www.w3.org/1999/xlink" x="0px" y="0px"
	 width="200.231px" height="60.963px" viewBox="0 0 200.231 60.963" enable-background="new 0 0 200.231 60.963"
	 xml:space="preserve">
<rect display="none" fill="#002B36" width="200.231" height="60.963"/>
<g display="none">
	<circle display="inline" fill="#FFFFFF" cx="80.251" cy="142.329" r="5.703"/>
	<circle display="inline" fill="#FFFFFF" cx="277.251" cy="142.329" r="5.703"/>
	<g display="inline" opacity="0.5">
		<circle cx="7.248" cy="141.329" r="5.703"/>
		<circle cx="20.936" cy="141.329" r="5.703"/>
		<circle cx="36.906" cy="141.329" r="5.703"/>
		<circle cx="56.297" cy="141.329" r="5.703"/>
		<circle cx="112.189" cy="141.329" r="5.703"/>
		<circle cx="156.675" cy="141.329" r="5.703"/>
		<circle cx="221.693" cy="141.329" r="5.703"/>
	</g>
</g>
<g display="none" opacity="0.5">
	<circle display="inline" cx="321.789" cy="38.329" r="5.703"/>
	<circle display="inline" cx="308.101" cy="38.329" r="5.704"/>
	<circle display="inline" cx="292.132" cy="38.329" r="5.703"/>
	<circle display="inline" cx="272.74" cy="38.329" r="5.703"/>
	<circle display="inline" cx="248.786" cy="38.329" r="5.703"/>
	<circle display="inline" cx="216.848" cy="38.329" r="5.703"/>
	<circle display="inline" cx="9.248" cy="38.329" r="5.703"/>
	<circle display="inline" cx="172.363" cy="38.329" r="5.703"/>
	<circle display="inline" cx="107.344" cy="38.329" r="5.703"/>
</g>
<g display="none">
	<polygon display="inline" fill="#3953A4" points="13.125,35.712 4.545,44.379 4.545,27.045 	"/>
	<polygon display="inline" fill="#3953A4" points="55.125,35.295 46.545,43.962 46.545,26.628 	"/>
	<polygon display="inline" fill="#3953A4" points="97.125,35.407 88.545,44.074 88.545,26.74 	"/>
	<polygon display="inline" fill="#3953A4" points="139.125,35.518 130.545,44.185 130.545,26.851 	"/>
	<polygon display="inline" fill="#3953A4" points="181.125,36.073 172.545,44.74 172.545,27.406 	"/>
	<polygon display="inline" fill="#3953A4" points="223.125,36.073 214.545,44.74 214.545,27.406 	"/>
	<polygon display="inline" fill="#3953A4" points="34.125,35.712 25.545,44.379 25.545,27.045 	"/>
	<polygon display="inline" fill="#3953A4" points="76.125,35.295 67.545,43.962 67.545,26.628 	"/>
	<polygon display="inline" fill="#3953A4" points="118.125,35.407 109.545,44.074 109.545,26.74 	"/>
	<polygon display="inline" fill="#3953A4" points="160.125,35.518 151.545,44.185 151.545,26.851 	"/>
	<polygon display="inline" fill="#3953A4" points="202.125,36.073 193.545,44.74 193.545,27.406 	"/>
	<polygon display="inline" fill="#3953A4" points="244.125,36.073 235.545,44.74 235.545,27.406 	"/>
	<polygon display="inline" fill="#3953A4" points="265.125,36.073 256.545,44.74 256.545,27.406 	"/>
	<polygon display="inline" fill="#3953A4" points="286.125,36.073 277.545,44.74 277.545,27.406 	"/>
	<polygon display="inline" fill="#3953A4" points="307.125,36.073 298.545,44.74 298.545,27.406 	"/>
	<polygon display="inline" fill="#3953A4" points="328.125,36.073 319.545,44.74 319.545,27.406 	"/>
</g>
<g display="none">
	<polygon display="inline" fill="#3953A4" points="229.965,141.407 238.545,150.075 238.545,132.741 	"/>
	<polygon display="inline" fill="#3953A4" points="184.965,141.518 193.545,150.185 193.545,132.851 	"/>
	<polygon display="inline" fill="#3953A4" points="139.964,142.073 148.545,150.741 148.545,133.407 	"/>
	<polygon display="inline" fill="#3953A4" points="94.965,142.073 103.545,150.741 103.545,133.407 	"/>
	<polygon display="inline" fill="#3953A4" points="251.965,141.295 260.545,149.961 260.545,132.627 	"/>
	<polygon display="inline" fill="#3953A4" points="206.965,141.407 215.545,150.075 215.545,132.741 	"/>
	<polygon display="inline" fill="#3953A4" points="161.965,141.518 170.545,150.185 170.545,132.851 	"/>
	<polygon display="inline" fill="#3953A4" points="116.965,142.073 125.545,150.741 125.545,133.407 	"/>
	<polygon display="inline" fill="#3953A4" points="49.965,142.073 58.545,150.741 58.545,133.407 	"/>
	<polygon display="inline" fill="#3953A4" points="26.965,142.073 35.545,150.741 35.545,133.407 	"/>
	<polygon display="inline" fill="#3953A4" points="4.965,142.073 13.545,150.741 13.545,133.407 	"/>
</g>
<path fill="#FFFFFF" fill-opacity="0.3" stroke="#EEE8D5" stroke-miterlimit="10" d="M38.329,38.367c0,1.485-0.507,2.734-1.52,3.747
	c-1.014,1.014-2.263,1.521-3.747,1.521H6.771c-1.485,0-2.734-0.506-3.747-1.521c-1.014-1.013-1.52-2.262-1.52-3.747
	c0-1.484,0.507-2.733,1.522-3.747c1.015-1.013,2.267-1.52,3.753-1.52h21.059v-5.224H6.78c-1.487,0-2.739-0.508-3.753-1.525
	s-1.522-2.27-1.522-3.759V6.784c0-1.489,0.507-2.742,1.52-3.759C4.037,2.008,5.286,1.5,6.771,1.5h26.291
	c1.484,0,2.733,0.507,3.747,1.52c1.013,1.014,1.52,2.263,1.52,3.747c0,1.456-0.514,2.698-1.541,3.725
	c-1.028,1.028-2.27,1.542-3.726,1.542H11.995v5.31h21.067c1.456,0,2.698,0.507,3.726,1.521c1.027,1.014,1.541,2.248,1.541,3.704
	V38.367z"/>
<path fill="#FFFFFF" fill-opacity="0.3" stroke="#EEE8D5" stroke-miterlimit="10" d="M79.093,35.748c0,2.2-0.771,4.064-2.312,5.593
	c-1.542,1.529-3.412,2.293-5.609,2.293H52.759v11.104c0,1.484-0.5,2.733-1.499,3.747c-1,1.013-2.242,1.52-3.726,1.52
	c-1.485,0-2.734-0.507-3.747-1.521c-1.014-1.016-1.52-2.264-1.52-3.75V9.384c0-2.2,0.764-4.063,2.291-5.592
	C46.085,2.264,47.948,1.5,50.147,1.5h21.024c2.198,0,4.068,0.765,5.609,2.294c1.542,1.528,2.312,3.393,2.312,5.593L79.093,35.748
	L79.093,35.748z M68.602,33.1V12.033H52.759V33.1H68.602z"/>
<path fill="#FFFFFF" fill-opacity="0.3" stroke="#EEE8D5" stroke-miterlimit="10" d="M117.202,6.767c0,1.485-0.506,2.734-1.52,3.747
	c-1.014,1.014-2.263,1.52-3.747,1.52H93.523V38.36c0,1.487-0.5,2.738-1.499,3.752c-1,1.015-2.242,1.522-3.726,1.522
	c-1.484,0-2.733-0.507-3.747-1.521c-1.014-1.015-1.52-2.265-1.52-3.751V9.386c0-2.2,0.763-4.064,2.291-5.593
	C86.85,2.265,88.712,1.5,90.911,1.5h21.024c1.484,0,2.733,0.507,3.747,1.52C116.695,4.034,117.202,5.283,117.202,6.767z"/>
<path fill="#FFFFFF" fill-opacity="0.3" stroke="#EEE8D5" stroke-miterlimit="10" d="M158.009,35.748c0,2.2-0.771,4.064-2.312,5.593
	c-1.542,1.529-3.411,2.293-5.609,2.293h-21.024c-2.199,0-4.062-0.764-5.588-2.292c-1.527-1.526-2.292-3.389-2.292-5.588V25.221
	c0-2.197,0.765-4.06,2.295-5.588c1.529-1.526,3.396-2.291,5.597-2.291h18.442v-5.31h-21.059c-1.487,0-2.738-0.506-3.753-1.52
	c-1.015-1.013-1.523-2.262-1.523-3.747c0-1.484,0.507-2.733,1.521-3.747c1.012-1.013,2.261-1.52,3.746-1.52h23.637
	c2.199,0,4.068,0.765,5.609,2.293s2.312,3.393,2.312,5.593V35.748L158.009,35.748z M147.518,33.1v-7.879h-15.843V33.1H147.518z"/>
<path fill="#FFFFFF" fill-opacity="0.3" stroke="#EEE8D5" stroke-miterlimit="10" d="M198.773,52.121c0,2.2-0.771,4.063-2.312,5.592
	c-1.542,1.527-3.412,2.292-5.61,2.292h-23.636c-1.485,0-2.734-0.507-3.747-1.52c-1.013-1.014-1.52-2.263-1.52-3.747
	c0-1.485,0.507-2.734,1.521-3.747c1.015-1.014,2.266-1.52,3.754-1.52h21.058v-5.838h-18.442c-2.202,0-4.068-0.764-5.597-2.292
	c-1.53-1.529-2.294-3.394-2.294-5.594V6.771c0-1.485,0.507-2.735,1.52-3.75c1.013-1.014,2.262-1.522,3.747-1.522
	c1.483,0,2.725,0.508,3.725,1.522c0.999,1.015,1.499,2.266,1.499,3.752V33.1h15.843V6.774c0-1.458,0.512-2.73,1.535-3.816
	c1.023-1.085,2.26-1.571,3.71-1.458c3.497,0.286,5.245,2.042,5.245,5.27L198.773,52.121L198.773,52.121z"/>
<path fill="#FFFFFF" fill-opacity="0.3" stroke="#EEE8D5" stroke-miterlimit="10" d="M154.818,57.33c0,1.512,1.25,2.738,2.666,2.738
	l0,0c1.416,0,2.666-1.226,2.666-2.738v-5.188c0-1.512-1.25-2.738-2.666-2.738l0,0c-1.417,0-2.666,1.226-2.666,2.738V57.33z"/>
<path fill="#FFFFFF" fill-opacity="0.3" stroke="#EEE8D5" stroke-miterlimit="10" d="M148.819,57.33c0,1.512,1.25,2.738,2.667,2.738
	l0,0c1.416,0,2.666-1.226,2.666-2.738v-5.188c0-1.512-1.25-2.738-2.666-2.738l0,0c-1.417,0-2.667,1.226-2.667,2.738V57.33z"/>
<path fill="#FFFFFF" fill-opacity="0.3" stroke="#EEE8D5" stroke-miterlimit="10" d="M143.153,57.33c0,1.512,1.25,2.738,2.667,2.738
	l0,0c1.416,0,2.666-1.226,2.666-2.738v-5.188c0-1.512-1.25-2.738-2.666-2.738l0,0c-1.417,0-2.667,1.226-2.667,2.738V57.33z"/>
<path fill="#FFFFFF" fill-opacity="0.3" stroke="#EEE8D5" stroke-miterlimit="10" d="M137.155,57.33c0,1.512,1.25,2.738,2.666,2.738
	l0,0c1.416,0,2.666-1.226,2.666-2.738v-5.188c0-1.512-1.25-2.738-2.666-2.738l0,0c-1.417,0-2.666,1.226-2.666,2.738V57.33z"/>
<path fill="#FFFFFF" fill-opacity="0.3" stroke="#EEE8D5" stroke-miterlimit="10" d="M130.823,57.33c0,1.512,1.25,2.738,2.666,2.738
	l0,0c1.416,0,2.666-1.226,2.666-2.738v-5.188c0-1.512-1.25-2.738-2.666-2.738l0,0c-1.417,0-2.666,1.226-2.666,2.738V57.33z"/>
<path fill="#FFFFFF" fill-opacity="0.3" stroke="#EEE8D5" stroke-miterlimit="10" d="M123.824,57.33c0,1.512,1.25,2.738,2.667,2.738
	l0,0c1.416,0,2.666-1.226,2.666-2.738v-5.188c0-1.512-1.25-2.738-2.666-2.738l0,0c-1.417,0-2.667,1.226-2.667,2.738V57.33z"/>
<path fill="#FFFFFF" fill-opacity="0.3" stroke="#EEE8D5" stroke-miterlimit="10" d="M115.492,57.33c0,1.512,1.25,2.738,2.666,2.738
	l0,0c1.416,0,2.667-1.226,2.667-2.738v-5.188c0-1.512-1.25-2.738-2.667-2.738l0,0c-1.416,0-2.666,1.226-2.666,2.738V57.33z"/>
<path fill="#FFFFFF" fill-opacity="0.3" stroke="#EEE8D5" stroke-miterlimit="10" d="M105.161,57.33c0,1.512,1.25,2.738,2.666,2.738
	l0,0c1.416,0,2.666-1.226,2.666-2.738v-5.188c0-1.512-1.25-2.738-2.666-2.738l0,0c-1.417,0-2.666,1.226-2.666,2.738V57.33z"/>
<path fill="#FFFFFF" fill-opacity="0.3" stroke="#EEE8D5" stroke-miterlimit="10" d="M91.83,57.33c0,1.512,1.25,2.738,2.667,2.738
	l0,0c1.416,0,2.666-1.226,2.666-2.738v-5.188c0-1.512-1.25-2.738-2.666-2.738l0,0c-1.417,0-2.667,1.226-2.667,2.738V57.33z"/>
<path fill="#FFFFFF" fill-opacity="0.3" stroke="#EEE8D5" stroke-miterlimit="10" d="M72.834,57.33c0,1.512,1.25,2.738,2.666,2.738
	l0,0c1.416,0,2.666-1.226,2.666-2.738v-5.188c0-1.512-1.25-2.738-2.666-2.738l0,0c-1.417,0-2.666,1.226-2.666,2.738V57.33z"/>
</svg>
