<?xml version="1.0" encoding="utf-8"?>
<!-- Generator: Adobe Illustrator 16.0.1, SVG Export Plug-In . SVG Version: 6.00 Build 0)  -->
<!DOCTYPE svg PUBLIC "-//W3C//DTD SVG 1.1//EN" "http://www.w3.org/Graphics/SVG/1.1/DTD/svg11.dtd">
<svg version="1.1" id="Layer_1" xmlns="http://www.w3.org/2000/svg" xmlns:xlink="http://www.w3.org/1999/xlink" x="0px" y="0px"
	 width="782px" height="182px" viewBox="0 0 782 182" enable-background="new 0 0 782 182" xml:space="preserve">
<g>
	<path fill="#EEE8D5" d="M225.667,127.633V49.846h-27.781V34.008h74.401v15.838h-27.717v77.787H225.667z"/>
	<path fill="#EEE8D5" d="M266.157,59.809h19.095l16.222,48.154l15.838-48.154h18.584l-23.949,65.269l-4.279,11.815
		c-1.576,3.959-3.077,6.981-4.502,9.068c-1.427,2.085-3.065,3.778-4.917,5.077c-1.852,1.298-4.13,2.309-6.833,3.033
		c-2.704,0.724-5.759,1.086-9.165,1.086c-3.449,0-6.833-0.362-10.154-1.086l-1.597-14.05c2.81,0.553,5.343,0.83,7.6,0.83
		c4.172,0,7.258-1.225,9.26-3.672c2-2.449,3.533-5.567,4.598-9.356L266.157,59.809z"/>
	<path fill="#EEE8D5" d="M346.881,59.809h16.732v9.963c2.171-3.406,5.109-6.173,8.813-8.302c3.704-2.128,7.812-3.193,12.326-3.193
		c7.876,0,14.562,3.087,20.054,9.26c5.492,6.174,8.238,14.775,8.238,25.801c0,11.326-2.768,20.128-8.303,26.407
		c-5.535,6.281-12.241,9.421-20.117,9.421c-3.747,0-7.143-0.746-10.186-2.235c-3.044-1.49-6.249-4.045-9.612-7.664v34.167h-17.946
		V59.809z M364.636,92.571c0,7.622,1.511,13.252,4.534,16.893c3.022,3.64,6.706,5.46,11.049,5.46c4.172,0,7.642-1.67,10.41-5.014
		c2.767-3.342,4.151-8.823,4.151-16.445c0-7.11-1.427-12.39-4.279-15.838c-2.853-3.449-6.386-5.173-10.601-5.173
		c-4.386,0-8.026,1.692-10.921,5.077C366.083,80.916,364.636,85.93,364.636,92.571z"/>
	<path fill="#EEE8D5" d="M466.562,106.047l17.882,3.002c-2.299,6.557-5.929,11.549-10.889,14.976
		c-4.96,3.428-11.166,5.142-18.616,5.142c-11.794,0-20.522-3.854-26.185-11.56c-4.47-6.173-6.705-13.964-6.705-23.375
		c0-11.24,2.938-20.042,8.813-26.408c5.875-6.365,13.305-9.548,22.288-9.548c10.091,0,18.052,3.332,23.885,9.995
		c5.833,6.664,8.622,16.871,8.366,30.623h-44.96c0.128,5.323,1.575,9.462,4.343,12.421c2.768,2.96,6.216,4.438,10.346,4.438
		c2.811,0,5.173-0.767,7.089-2.299C464.136,111.922,465.583,109.453,466.562,106.047z M467.585,87.909
		c-0.128-5.194-1.469-9.143-4.023-11.847c-2.555-2.703-5.663-4.055-9.324-4.055c-3.918,0-7.153,1.427-9.708,4.279
		c-2.554,2.853-3.811,6.728-3.768,11.623H467.585z"/>
	<path fill="#EEE8D5" d="M493.705,108.282l18.01-2.747c0.767,3.492,2.32,6.143,4.662,7.952c2.341,1.81,5.62,2.714,9.835,2.714
		c4.641,0,8.132-0.852,10.474-2.555c1.575-1.191,2.363-2.788,2.363-4.79c0-1.361-0.427-2.49-1.277-3.384
		c-0.895-0.852-2.896-1.639-6.003-2.364c-14.477-3.193-23.652-6.109-27.525-8.749c-5.365-3.662-8.047-8.75-8.047-15.264
		c0-5.875,2.319-10.814,6.961-14.816c4.64-4.001,11.836-6.003,21.586-6.003c9.281,0,16.179,1.512,20.691,4.534
		c4.513,3.024,7.621,7.494,9.324,13.412l-16.924,3.129c-0.725-2.639-2.098-4.662-4.119-6.067c-2.022-1.405-4.907-2.108-8.653-2.108
		c-4.726,0-8.111,0.661-10.154,1.98c-1.363,0.937-2.044,2.15-2.044,3.64c0,1.277,0.596,2.363,1.788,3.257
		c1.618,1.192,7.206,2.874,16.765,5.045c9.558,2.171,16.231,4.833,20.021,7.983c3.746,3.193,5.62,7.643,5.62,13.347
		c0,6.217-2.598,11.56-7.792,16.03s-12.879,6.706-23.055,6.706c-9.239,0-16.552-1.873-21.938-5.62
		C498.888,119.8,495.365,114.711,493.705,108.282z"/>
	<path fill="#EEE8D5" d="M586.181,80.501l-16.286-2.938c1.83-6.556,4.981-11.41,9.452-14.561c4.471-3.15,11.112-4.726,19.926-4.726
		c8.004,0,13.964,0.948,17.882,2.842c3.917,1.895,6.674,4.301,8.271,7.217c1.597,2.917,2.395,8.271,2.395,16.062l-0.191,20.947
		c0,5.962,0.287,10.357,0.862,13.188c0.575,2.832,1.649,5.865,3.226,9.101h-17.755c-0.469-1.191-1.044-2.959-1.724-5.301
		c-0.299-1.063-0.512-1.767-0.639-2.107c-3.065,2.98-6.345,5.216-9.836,6.706c-3.491,1.489-7.216,2.235-11.176,2.235
		c-6.983,0-12.485-1.895-16.509-5.685c-4.023-3.789-6.035-8.578-6.035-14.369c0-3.832,0.915-7.249,2.746-10.25
		c1.83-3.001,4.396-5.3,7.695-6.897c3.299-1.597,8.058-2.991,14.274-4.183c8.387-1.575,14.198-3.043,17.435-4.407v-1.788
		c0-3.449-0.853-5.908-2.555-7.376c-1.703-1.469-4.918-2.203-9.644-2.203c-3.193,0-5.684,0.628-7.472,1.884
		C588.735,75.147,587.287,77.351,586.181,80.501z M610.193,95.062c-2.299,0.767-5.939,1.683-10.921,2.746
		c-4.981,1.065-8.238,2.108-9.771,3.129c-2.342,1.661-3.513,3.768-3.513,6.322c0,2.513,0.937,4.685,2.811,6.515
		c1.873,1.831,4.257,2.746,7.152,2.746c3.235,0,6.323-1.063,9.261-3.193c2.171-1.617,3.598-3.598,4.278-5.939
		c0.469-1.532,0.703-4.448,0.703-8.749V95.062z"/>
	<path fill="#EEE8D5" d="M637.655,59.809h9.962V54.7c0-5.705,0.607-9.963,1.82-12.773c1.214-2.81,3.449-5.098,6.706-6.865
		c3.257-1.767,7.376-2.65,12.357-2.65c5.109,0,10.111,0.766,15.008,2.299l-2.427,12.518c-2.853-0.681-5.599-1.022-8.238-1.022
		c-2.598,0-4.46,0.607-5.588,1.82c-1.129,1.213-1.692,3.544-1.692,6.993v4.79h13.411v14.114h-13.411v53.709h-17.946V73.923h-9.962
		V59.809z"/>
	<path fill="#EEE8D5" d="M728.342,106.047l17.882,3.002c-2.299,6.557-5.929,11.549-10.889,14.976
		c-4.96,3.428-11.166,5.142-18.616,5.142c-11.794,0-20.522-3.854-26.185-11.56c-4.47-6.173-6.705-13.964-6.705-23.375
		c0-11.24,2.938-20.042,8.813-26.408c5.875-6.365,13.305-9.548,22.288-9.548c10.091,0,18.052,3.332,23.885,9.995
		c5.833,6.664,8.622,16.871,8.366,30.623h-44.96c0.128,5.323,1.575,9.462,4.343,12.421c2.768,2.96,6.216,4.438,10.346,4.438
		c2.811,0,5.173-0.767,7.089-2.299C725.915,111.922,727.362,109.453,728.342,106.047z M729.364,87.909
		c-0.128-5.194-1.469-9.143-4.023-11.847c-2.555-2.703-5.663-4.055-9.324-4.055c-3.918,0-7.153,1.427-9.708,4.279
		c-2.554,2.853-3.811,6.728-3.768,11.623H729.364z"/>
</g>
<path fill="#EEE8D5" d="M126.729,44.265h39.994c3.666,0,6.663-3,6.663-6.669v-26.66c0-3.665-2.997-6.665-6.663-6.665h-46.659
	c-3.666,0-6.663,3-6.663,6.665v19.995c0,3.669-3.001,6.665-6.667,6.665H66.744c-3.668,0-6.667,3-6.667,6.669v19.996
	c0,3.665-2.998,6.666-6.664,6.666H13.42c-3.666,0-6.665,2.996-6.665,6.665v26.659c0,3.665,3,6.665,6.665,6.665h46.657v19.996
	c0,3.663-2.998,6.664-6.664,6.664H13.42c-3.666,0-6.665,3.001-6.665,6.666v26.66c0,3.669,3,6.665,6.665,6.665h46.657
	c3.667,0,6.667-2.996,6.667-6.665v-19.996c0-3.664,2.997-6.664,6.663-6.664h39.994c3.666,0,6.663-3.001,6.663-6.666V117.58
	c0-3.665,3-6.665,6.665-6.665h39.994c3.666,0,6.663-3,6.663-6.665V77.591c0-3.669-2.997-6.665-6.663-6.665h-46.659V50.931
	C120.063,47.262,123.063,44.265,126.729,44.265z M113.401,97.585c0,3.664-3.001,6.665-6.667,6.665H66.744V84.256
	c0-3.669,2.997-6.666,6.663-6.666h39.994V97.585z"/>
</svg>
