<?xml version="1.0" encoding="utf-8"?>
<!-- Generator: Adobe Illustrator 16.0.4, SVG Export Plug-In . SVG Version: 6.00 Build 0)  -->
<!DOCTYPE svg PUBLIC "-//W3C//DTD SVG 1.1//EN" "http://www.w3.org/Graphics/SVG/1.1/DTD/svg11.dtd">
<svg version="1.1" id="Layer_1" xmlns="http://www.w3.org/2000/svg" xmlns:xlink="http://www.w3.org/1999/xlink" x="0px" y="0px"
	 width="74px" height="53.667px" viewBox="8.333 225.836 74 53.667" enable-background="new 8.333 225.836 74 53.667"
	 xml:space="preserve">
<g>
	<path opacity="0.5" fill="#EEE8D5" d="M70.35,276.266c10.966,8.768,17.992-17.412,0.519-22.238
		c-14.663-4.062-29.417,2.902-44.202,19.153C26.667,273.181,53.977,263.191,70.35,276.266z"/>
	<path fill="#EEE8D5" d="M26.912,272.967c10.508-10.905,27.981-23.063,44.263-18.572c3.788,1.068,6.476,3.268,8.217,5.895
		l-15.396-31.066c-2.199-3.513-7.82-2.78-10.997-0.092l-40.688,34.091c-3.696,3.176-3.91,8.828-0.489,12.249
		c3.024,3.024,7.82,3.299,11.15,0.61L26.912,272.967z"/>
</g>
</svg>
