<?xml version="1.0" encoding="utf-8"?>
<!-- Generator: Adobe Illustrator 16.0.1, SVG Export Plug-In . SVG Version: 6.00 Build 0)  -->
<!DOCTYPE svg PUBLIC "-//W3C//DTD SVG 1.1//EN" "http://www.w3.org/Graphics/SVG/1.1/DTD/svg11.dtd">
<svg version="1.1" id="Layer_1" xmlns="http://www.w3.org/2000/svg" xmlns:xlink="http://www.w3.org/1999/xlink" x="0px" y="0px"
	 width="505px" height="204px" viewBox="0 0 505 204" enable-background="new 0 0 505 204" xml:space="preserve">
<rect display="none" fill="#002B36" width="505" height="204"/>
<g>
	<path fill="#C8CA00" d="M66.54,33.07c2.93-2.94,7.41-3.05,11.28-2.74c6.09,0.31,10.49,6.08,11.27,11.77
		c0.55,3.58-1.06,6.93-2.35,10.16c2.81,3.51,6.01,6.69,8.78,10.23c-0.76,0.28-2.28,0.85-3.04,1.13c-3.08-2.44-5.49-5.62-8.08-8.55
		c-3.4,1.81-7.18,2.55-11,2.53c-0.96,2.3-1.85,4.62-2.77,6.94c-0.8-0.54-1.61-1.07-2.41-1.6c0.39-2.16,1.31-4.34,0.96-6.56
		c-2.31-2.43-5.16-4.6-6.2-7.93C60.7,43.25,62.58,36.91,66.54,33.07z"/>
	<path fill="#C8CA00" d="M445.89,73.41c8.011-6.38,19.33-7.52,28.931-4.54c6.18,1.56,12.1,6.47,12.84,13.1
		c0.28,3.811,0.47,8.08-2,11.28c-2.08,3.24-5.76,4.79-9.05,6.48c2.54,1.33,5.22,2.84,6.6,5.49c4.17,8.37,1.13,19.601-6.69,24.75
		c-7.199,4.94-16.38,5.771-24.85,4.86c-7.29-1.21-14.95-4.78-18.21-11.811c-2.15-3.77-1.71-8.199-1.65-12.35
		c5.141,0.01,10.28,0,15.431-0.029c0.1,3.609,0.189,7.939,3.88,9.84c5.479,2.24,13.82,2.06,16.75-4.051
		c1.88-2.97,1.37-7.33-1.51-9.459c-3.261-2.461-7.551-1.721-11.341-2.061c0.48-3.45,1.051-6.89,1.86-10.28
		c4.38,0.01,8.88-0.39,12.9-2.27c3.609-2.5,3.29-8.89-0.84-10.72c-4.381-1.68-10.15-1.43-13.5,2.22
		c-1.551,1.55-2.28,3.66-3.221,5.58c-5.029,0.07-10.06,0.13-15.08-0.05C438.25,83.31,440.9,77.28,445.89,73.41z"/>
	<path fill="#C8CA00" d="M409.76,78.17c3.681-2.04,5.601-5.95,7.73-9.39c4.109,0.01,8.21-0.01,12.319,0.05
		c-0.359,5.08-0.649,10.18-1.47,15.22c-0.79,5.95-0.76,11.98-1.649,17.92c-1.11,6.62-1.04,13.37-2.021,20
		c-0.71,4.271-0.899,8.601-1.22,12.921c-5.44,0.209-10.891,0.14-16.33,0.079c1.11-14.09,2.81-28.14,4.12-42.21
		c-6.18-0.1-12.351-0.05-18.521-0.06c0.21-3.94,0.521-7.88,1-11.79C399.14,80.77,404.83,80.77,409.76,78.17z"/>
	<path fill="#C8CA00" d="M155.29,122.49c7.17-3.91,16.94,1.18,18.62,8.97c0.86,4.71,0.36,10.181-3.3,13.649
		c-3.6,3.971-9.65,5.051-14.55,3.11c-3.55-1.51-5.92-4.68-7.8-7.909c-6.5,0.549-12.76,2.469-19.09,3.92
		c-25.41,5.699-50.71,11.869-76.15,17.399c-0.96,3.979-1.2,8.54-4.36,11.54c-4.48,5.08-13.2,5.43-18.18,0.9
		c-5.83-4.721-6.74-14.26-1.81-19.94c2.93-3.771,7.93-4.989,12.5-4.94c2.86-7.83,4.85-15.939,7.61-23.799
		c0.74-0.051,2.21-0.141,2.94-0.19c-1.24,8.56-4.7,16.62-6.94,24.95c2.76,2.539,5.34,5.27,7.41,8.41
		c31.51-7.65,63.18-14.74,94.79-22.021C147.5,130.98,149.72,124.77,155.29,122.49z"/>
</g>
<g>
	<path fill="#EEE8D5" d="M232.33,82.85c6.67-8.28,16.91-13.31,27.41-14.45c8.73-1.34,17.609,0.1,26.13,2.07
		c2.69,0.521,5.44,0.34,8.159,0.43c-0.719,4.07-1.629,8.11-2.109,12.22c-0.98,13.03-2.641,25.989-3.38,39.04
		c2.94,0.05,5.89,0,8.83,0.08c-0.39,4.3-0.88,8.59-1.399,12.88c-8.811,0.09-17.631,0.069-26.451,0.021
		c1.08-7.521,2.301-15.021,3.98-22.44c-3.65,7.61-7.859,15.51-15.32,20.021c-7.87,4.77-18.689,5.329-26.459,0.049
		c-6.58-4.59-8.89-13.1-8.65-20.76C222.74,101.64,225.74,90.97,232.33,82.85z M257.971,82.49
		c-9.261,3.729-14.021,14.01-14.661,23.47c-0.25,4.399-0.71,9.431,1.98,13.21c1.79,2.78,5.64,2.16,8.05,0.63
		c5.75-3.52,9.641-9.33,12.75-15.159c3.561-7.11,6.439-14.851,6.36-22.9C267.65,81.01,262.529,80.4,257.971,82.49z"/>
</g>
<path fill="#EEE8D5" d="M36.97,69.14c12.02-0.04,24.04-0.08,36.05,0.02c-0.29,4.39-0.94,8.75-1.44,13.12
	c-2.15,0.02-4.29,0.02-6.44,0.05c2.73,7.74,4.99,15.64,7.55,23.439c1.43,4.311,2.71,8.681,3.4,13.17
	c4.71-9.449,10.79-18.129,16.16-27.209c2.33-2.92-0.72-6.34-1.34-9.38c-2.65-0.05-5.3-0.06-7.95-0.11c0.22-4.38,0.55-8.75,1.11-13.1
	c12.26-0.02,24.53-0.14,36.79,0.07c-0.42,4.35-1.06,8.68-1.33,13.05c-2.45,0.03-4.9,0.03-7.34,0.05
	c4.09,11.64,7.68,23.45,11.27,35.25c5.96-11.791,11.51-23.82,18.15-35.25c-3.19-0.03-6.38,0-9.57-0.05
	c0.39-4.4,0.98-8.78,1.36-13.18c12,0.1,23.99-0.07,35.99,0.09c-0.21,4.33-0.65,8.66-1.2,12.96c-2.31,0.18-4.7-0.09-6.94,0.57
	c-1.55,1.89-2.65,4.1-3.89,6.2c-9.04,15.411-18.27,30.72-27.21,46.19c-7.14,0.17-14.27,0.08-21.4,0.051
	c-2.89-9.091-6.43-17.951-8.99-27.131c-3.98,7.6-8.73,14.771-12.99,22.221c-1.06,1.649-1.87,3.55-3.38,4.859
	c-6.97,0.25-13.95,0.02-20.93,0.051C56.06,117.5,49.13,100.06,42.74,82.42c-2.4-0.09-4.8-0.13-7.2-0.2
	C35.91,77.85,36.36,73.48,36.97,69.14z"/>
<path fill="#EEE8D5" d="M190.66,69.17c9.38-0.1,18.77-0.14,28.15,0.04c-1.8,16.56-3.21,33.15-5.02,49.71
	c-0.87,11.82-2.68,24.49-10.42,33.98c-6.36,7.959-16.09,11.93-25.41,15.289c-2.25-3.729-4.39-7.529-6.57-11.31
	c6.86-2.84,13.8-6.76,17.44-13.53c5.77-10.399,5.69-22.68,6.87-34.209c1.07-8.921,1.75-17.881,2.64-26.821
	c-2.95-0.05-5.9,0-8.85-0.07C189.64,77.87,190.15,73.52,190.66,69.17z"/>
<path fill="#EEE8D5" d="M308.9,69.14c7.47-0.05,14.939-0.06,22.409,0.01c5.511,7.64,10.591,15.58,16.12,23.2
	c4.63-3.43,9.181-6.99,13.58-10.71c-3.17-0.16-6.35-0.12-9.52-0.19c0.479-4.11,0.95-8.21,1.49-12.31
	c9.909-0.02,19.829-0.12,29.739,0.05c-0.529,3.84-0.7,7.72-1.359,11.53c-0.16,1.32-1.591,1.87-2.431,2.72
	c-8.229,6.19-16.39,12.47-24.59,18.69c4.3,6.729,8.99,13.22,13.46,19.851c3.32,0.229,6.66,0.199,9.99,0.25
	c-0.24,4.319-0.771,8.609-1.23,12.91c-7.59,0.029-15.189,0.1-22.779-0.041c-5.101-7.629-10.42-15.109-15.53-22.729
	c-4.56,3.39-9.08,6.851-13.48,10.44c3.471,0.16,6.95,0.149,10.44,0.18c-0.39,4.04-0.92,8.07-1.4,12.109
	c-10.199,0.15-20.399,0.041-30.6,0.061c0.36-3.96,0.56-7.95,1.36-11.86c1.47-1.94,3.67-3.149,5.529-4.67
	c7.11-5.29,14.15-10.69,21.261-15.979c-4.62-6.84-9.24-13.67-14.03-20.37c-3.26-0.01-6.53,0.04-9.78-0.03
	C307.81,77.86,308.32,73.5,308.9,69.14z"/>
<path fill="#EEE8D5" d="M161.14,97.78c7.67-0.16,15.35-0.021,23.03-0.07c-0.39,4.89-0.8,9.771-1.43,14.63
	c-7.78,0.061-15.56,0.12-23.34-0.02C159.88,107.46,160.51,102.62,161.14,97.78z"/>
</svg>
