<?xml version="1.0" encoding="utf-8"?>
<!-- Generator: Adobe Illustrator 16.0.1, SVG Export Plug-In . SVG Version: 6.00 Build 0)  -->
<!DOCTYPE svg PUBLIC "-//W3C//DTD SVG 1.1//EN" "http://www.w3.org/Graphics/SVG/1.1/DTD/svg11.dtd">
<svg version="1.1" id="Layer_1" xmlns="http://www.w3.org/2000/svg" xmlns:xlink="http://www.w3.org/1999/xlink" x="0px" y="0px"
	 width="520.684px" height="123.437px" viewBox="0 0 520.684 123.437" enable-background="new 0 0 520.684 123.437"
	 xml:space="preserve">
<path fill="#268BD2" d="M390.52,0.658c8.43-2.85,18.17,3.95,18.39,12.83c0.76,7.63-5.53,14.82-13.13,15.36
	c-7.69,0.76-15.43-5.66-15.53-13.53C379.58,8.738,384.25,2.428,390.52,0.658z"/>
<path fill="#268BD2" d="M381.35,40.718c8.49,0.06,16.98,0.04,25.47,0.02c0.12,13.83,0.03,27.66,0.06,41.49
	c-5.02,0.12-10.03,0.17-15.04,0.22c0.02,12.74,5.89,25.44,16.11,33.17c4.97,4.14,11.25,5.99,17.36,7.7
	c-7.73,0.7-15.77,0.19-22.87-3.17c-9.44-4.26-16.19-13.17-19.1-22.96c-2.64-8.68-2.12-17.86-2.19-26.82
	C381.27,60.488,380.9,50.598,381.35,40.718z"/>
<path fill="#268BD2" d="M455.48,45.678c9.78-4.93,21.31-5.91,31.93-3.49c11.94,2.76,22.65,10.67,28.53,21.46
	c4.44,8.27,5.96,18.16,3.72,27.33c-2.71,12.23-11.63,22.62-22.85,27.96c-14.02,6.83-31.71,6.33-44.89-2.21
	c5.48-4.85,10.18-10.53,13.54-17.07c4.58,1.81,9.51,3.95,14.52,2.65c9.63-2.08,16.02-12.27,15.04-21.84
	c-0.63-8.92-7.6-17.68-16.84-18.5c-7.18-0.89-14.48,3.17-17.88,9.47c-1.74,3.33-2.51,7.04-3.38,10.66c-3.18,0.2-6.36,0.33-9.54,0.53
	c-1.04,6.67-2.91,14.08-9.04,17.89c-3.76,2.88-8.66,2.61-13.09,2.01c2.3-3.2,4.97-6.39,5.7-10.38c1.25-6.28,0.48-12.79,1.97-19.04
	C435.73,61.138,444.52,51.008,455.48,45.678z"/>
<g>
	<path fill="#FFFFFF" d="M244.42,9.628c8.04-0.03,16.08,0,24.11-0.03c0.25,37.4,0.14,74.8,0.06,112.2
		c-8.06,0.1-16.13,0.16-24.19-0.05C244.43,84.378,244.38,46.998,244.42,9.628z"/>
	<path fill="#FFFFFF" d="M29.55,14.948c13.07-2.26,27.01-1.32,39.17,4.23c-1.68,6.44-3.48,12.85-5.28,19.26
		c-8.73-3.35-18.2-6.04-27.61-4.31c-4.36,0.83-9.08,3.57-9.83,8.32c-0.76,3.79,1.58,7.43,4.7,9.38c7.24,4.73,15.89,6.49,23.48,10.52
		c7.46,3.76,14.5,9.61,17.21,17.78c3.29,10.07,1.57,21.94-5.37,30.11c-6.1,7.18-15.3,10.95-24.43,12.37
		c-14.01,2.06-28.64,0.3-41.59-5.52c1.38-6.74,3.02-13.42,4.84-20.05c11.11,4.76,23.82,8.66,35.81,5.03
		c6.12-1.57,9.69-9.11,6.44-14.68c-3.91-5.99-11.3-7.87-17.58-10.33c-9.48-3.49-19.1-8.59-24.61-17.39
		c-6.2-10.23-4.55-24.34,3.37-33.2C13.71,20.238,21.55,16.578,29.55,14.948z"/>
	<g>
		<path fill="#FFFFFF" d="M161.63,49.418c11.9-5.77,25.55-8.02,38.66-6.13c8.33,1.17,16.64,5.53,20.76,13.13
			c5.29,9.03,4.56,19.88,4.62,29.95c0.17,11.81-0.6,23.68,0.94,35.44c-7.27,0.05-14.54,0.25-21.8-0.17
			c-0.36-2.41-0.78-4.82-1.15-7.23c-4.66,4.26-10.18,7.91-16.57,8.74c-8.45,1.5-18-0.21-24.14-6.56
			c-7.27-6.92-8.54-18.41-4.85-27.43c2.6-6.25,8.05-10.91,14.11-13.68c9.21-4.23,19.5-5.1,29.51-5.28
			c-0.56-3.84-2.07-8.11-6.17-9.36c-9.83-3.37-20.54-0.07-29.5,4.35C164.45,59.968,162.91,54.728,161.63,49.418z M183.61,89.848
			c-4.66,3.5-5.02,11.67-0.05,15.05c5.54,3.41,13.42,0.98,16.76-4.44c2.79-4.51,1.64-10.1,1.82-15.13
			C195.83,85.788,188.87,85.848,183.61,89.848z"/>
	</g>
	<g>
		<path fill="#FFFFFF" d="M288.16,49.568c11.43-5.86,24.69-7.92,37.41-6.48c8.66,0.96,17.42,5.19,21.87,12.97
			c5.1,8.5,4.82,18.75,4.73,28.31c0.14,12.47-0.58,24.99,1,37.4c-7.23,0.14-14.48,0.24-21.7-0.09c-0.42-2.45-0.91-4.87-1.37-7.31
			c-4.42,4.3-9.83,7.76-16.02,8.71c-8.92,1.72-19.12-0.25-25.35-7.26c-9.25-9.95-7.75-27.57,2.94-35.93
			c10.27-8.22,24.03-9.39,36.69-9.76c-0.74-3.62-2.01-7.79-5.89-9.12c-9.93-3.71-20.83-0.22-29.95,4.17
			C291.07,59.968,289.54,54.788,288.16,49.568z M310.41,89.658c-4.79,3.31-5.22,11.41-0.59,15.03c5.14,3.57,12.69,1.52,16.37-3.26
			c3.7-4.5,2.24-10.72,2.39-16.06C322.39,85.778,315.64,85.858,310.41,89.658z"/>
	</g>
	<path fill="#FFFFFF" d="M92.78,58.958c6.6-9.03,17.41-14.28,28.36-15.62c8.9-1.07,18.16-0.6,26.6,2.6
		c-1.28,5.85-2.51,11.71-3.75,17.57c-7.61-1.8-16.12-3.44-23.43,0.25c-14.31,7.06-14.41,31.18-0.09,38.28
		c7.55,3.93,16.41,2.28,24.26,0.25c0.99,5.95,2.15,11.88,2.57,17.91c-10.83,3.53-22.63,4.28-33.77,1.87
		c-11.6-2.52-21.87-10.95-25.83-22.24C82.96,86.478,84.26,70.538,92.78,58.958z"/>
</g>
</svg>
