<?xml version="1.0" encoding="utf-8"?>
<!-- Generator: Adobe Illustrator 17.0.0, SVG Export Plug-In . SVG Version: 6.00 Build 0)  -->
<!DOCTYPE svg PUBLIC "-//W3C//DTD SVG 1.1//EN" "http://www.w3.org/Graphics/SVG/1.1/DTD/svg11.dtd">
<svg version="1.1" id="Layer_1" xmlns="http://www.w3.org/2000/svg" xmlns:xlink="http://www.w3.org/1999/xlink" x="0px" y="0px"
	 width="183.229px" height="57.813px" viewBox="0 0 183.229 57.813" enable-background="new 0 0 183.229 57.813"
	 xml:space="preserve">
<path fill="#FFFFFF" d="M34.193,21.585h-5.32v-7.144h5.32V9.805C34.193,2.432,38.373,0,45.137,0c1.9,0,3.725,0.076,5.624,0.228
	v7.449c-0.684-0.076-1.368-0.076-2.052-0.076c-2.964,0-4.028,0.912-4.028,3.268v3.572h6.08v7.144h-6.08v33.746H34.193V21.585z"/>
<path fill="#FFFFFF" d="M66.112,13.377c12.617-0.228,16.113,7.296,16.113,21.509c0,13.985-4.104,21.509-16.113,21.509
	C53.496,56.623,50,49.099,50,34.886C50,20.901,54.104,13.377,66.112,13.377z M66.112,49.251c4.256,0,5.625-4.181,5.625-14.365
	s-1.368-14.365-5.625-14.365c-5.168,0-5.624,6.004-5.624,14.365S60.944,49.251,66.112,49.251z"/>
<path fill="#FFFFFF" d="M95.676,1.064v28.654h0.152l10.565-15.277h11.552l-11.78,16.113l13.528,24.777h-11.552L99.4,38.534
	l-3.724,4.864v11.933H85.187V1.064H95.676z"/>
<path fill="#FFFFFF" d="M140.745,50.543h-0.152c-2.204,4.028-6.004,5.852-10.413,5.852c-6.536,0-10.413-3.572-10.413-11.628V14.441
	h10.489v28.197c0,4.104,1.368,5.701,4.484,5.701c3.572,0,5.548-2.204,5.548-6.765V14.441h10.489v40.89h-10.033L140.745,50.543
	L140.745,50.543z"/>
<path fill="#FFFFFF" d="M14.334,1.064v38.762c0,5.776-0.912,8.513-4.864,8.513c-0.9,0-1.636-0.149-2.246-0.437L0,55.126
	c2.137,1.662,5.027,2.686,8.938,2.686c11.097,0,16.341-6.129,16.341-17.682V1.064H14.334z"/>
<path fill="#FFFFFF" d="M174.185,31.846l-6.308-2.128c-3.496-1.14-4.561-2.812-4.561-4.788c0-2.888,2.28-4.409,4.94-4.409
	c3.42,0,4.636,2.052,4.636,6.157h0.708l7.465-7.465c-1.925-3.758-6.104-5.836-12.734-5.836c-10.793,0-15.049,5.548-15.049,12.312
	c0,5.776,2.964,9.349,8.74,11.4l7.373,2.66c2.052,0.76,3.8,1.977,3.8,4.637c0,3.268-2.128,4.864-5.32,4.864
	c-3.572,0-5.473-2.357-5.473-5.929v-1.368h-9.424v1.444c0,7.829,3.268,12.997,15.049,12.997c8.816,0,15.201-4.256,15.201-12.845
	C183.229,37.394,180.797,34.05,174.185,31.846z"/>
</svg>
