<?xml version="1.0" encoding="utf-8"?>
<!-- Generator: Adobe Illustrator 16.0.1, SVG Export Plug-In . SVG Version: 6.00 Build 0)  -->
<!DOCTYPE svg PUBLIC "-//W3C//DTD SVG 1.1//EN" "http://www.w3.org/Graphics/SVG/1.1/DTD/svg11.dtd">
<svg version="1.1" xmlns="http://www.w3.org/2000/svg" xmlns:xlink="http://www.w3.org/1999/xlink" x="0px" y="0px"
	 width="600.813px" height="182.927px" viewBox="0 0 600.813 182.927" enable-background="new 0 0 600.813 182.927"
	 xml:space="preserve">
<g id="Layer_2" display="none">
	<rect x="-110.455" y="-75.927" display="inline" fill="#333333" width="800" height="600"/>
</g>
<g id="Layer_1">
	<path fill="#FFFFFF" fill-opacity="0.4" stroke="#FFFFFF" stroke-width="2" stroke-miterlimit="10" stroke-opacity="0.7" d="
		M115.009,115.124c0,4.455-1.521,8.203-4.561,11.242c-3.042,3.042-6.79,4.562-11.242,4.562H20.317c-4.456,0-8.203-1.52-11.243-4.562
		c-3.042-3.039-4.561-6.787-4.561-11.242c0-4.453,1.522-8.201,4.567-11.242c3.045-3.039,6.8-4.562,11.262-4.562h63.188V83.646
		H20.343c-4.462,0-8.217-1.524-11.262-4.576c-3.045-3.051-4.567-6.811-4.567-11.279V20.355c0-4.469,1.52-8.227,4.561-11.279
		C12.114,6.026,15.862,4.5,20.317,4.5h78.889c4.452,0,8.2,1.522,11.242,4.561c3.04,3.042,4.561,6.79,4.561,11.243
		c0,4.368-1.542,8.094-4.625,11.178c-3.083,3.083-6.81,4.625-11.178,4.625H35.992v15.932h63.214c4.368,0,8.094,1.522,11.178,4.562
		c3.083,3.041,4.625,6.745,4.625,11.113V115.124z"/>
	<path fill="#FFFFFF" fill-opacity="0.4" stroke="#FFFFFF" stroke-width="2" stroke-miterlimit="10" stroke-opacity="0.7" d="
		M237.325,107.263c0,6.602-2.312,12.197-6.938,16.785c-4.625,4.587-10.236,6.88-16.831,6.88h-55.249v33.319
		c0,4.452-1.499,8.201-4.496,11.243c-3,3.039-6.726,4.561-11.179,4.561c-4.455,0-8.203-1.522-11.242-4.563
		c-3.042-3.046-4.561-6.793-4.561-11.25V28.157c0-6.601,2.291-12.193,6.874-16.78c4.581-4.584,10.169-6.877,16.767-6.877h63.085
		c6.595,0,12.206,2.295,16.831,6.882c4.626,4.587,6.938,10.182,6.938,16.783V107.263z M205.847,99.32V36.106h-47.54V99.32H205.847z"
		/>
	<path fill="#FFFFFF" fill-opacity="0.4" stroke="#FFFFFF" stroke-width="2" stroke-miterlimit="10" stroke-opacity="0.7" d="
		M351.675,20.304c0,4.455-1.521,8.203-4.561,11.242c-3.042,3.042-6.79,4.561-11.243,4.561h-55.247v78.995
		c0,4.461-1.5,8.215-4.497,11.258c-3,3.045-6.726,4.568-11.178,4.568c-4.455,0-8.203-1.522-11.242-4.565
		c-3.042-3.044-4.561-6.796-4.561-11.254V28.165c0-6.601,2.29-12.196,6.874-16.783c4.581-4.587,10.17-6.882,16.767-6.882h63.084
		c4.453,0,8.201,1.522,11.243,4.561C350.153,12.103,351.675,15.851,351.675,20.304z"/>
	<path fill="#FFFFFF" fill-opacity="0.4" stroke="#FFFFFF" stroke-width="2" stroke-miterlimit="10" stroke-opacity="0.7" d="
		M474.12,107.263c0,6.602-2.312,12.197-6.938,16.785c-4.626,4.587-10.235,6.88-16.831,6.88h-63.086
		c-6.597,0-12.187-2.291-16.767-6.875c-4.583-4.581-6.875-10.169-6.875-16.767V75.679c0-6.594,2.295-12.183,6.886-16.767
		c4.588-4.581,10.188-6.874,16.795-6.874h55.337V36.106h-63.188c-4.462,0-8.216-1.519-11.262-4.561
		c-3.045-3.039-4.568-6.787-4.568-11.242c0-4.453,1.521-8.201,4.562-11.243c3.038-3.039,6.787-4.561,11.241-4.561h70.924
		c6.596,0,12.205,2.295,16.831,6.882s6.938,10.182,6.938,16.783V107.263z M442.641,99.32V75.679h-47.538V99.32H442.641z"/>
	<path fill="#FFFFFF" fill-opacity="0.4" stroke="#FFFFFF" stroke-width="2" stroke-miterlimit="10" stroke-opacity="0.7" d="
		M596.436,156.394c0,6.6-2.312,12.193-6.938,16.779c-4.625,4.584-10.236,6.877-16.832,6.877h-70.922
		c-4.455,0-8.203-1.522-11.242-4.561c-3.041-3.042-4.562-6.791-4.562-11.243c0-4.455,1.521-8.203,4.566-11.242
		c3.046-3.042,6.8-4.561,11.264-4.561h63.187v-17.516h-55.339c-6.606,0-12.206-2.293-16.793-6.88
		c-4.59-4.587-6.885-10.183-6.885-16.785V20.319c0-4.457,1.521-8.208,4.562-11.252c3.039-3.043,6.787-4.567,11.242-4.567
		c4.452,0,8.177,1.524,11.177,4.567c2.998,3.045,4.497,6.797,4.497,11.258V99.32h47.539V20.326c0-4.375,1.535-8.191,4.605-11.451
		c3.072-3.258,6.781-4.715,11.134-4.375c10.491,0.857,15.739,6.128,15.739,15.813V156.394z"/>
	<g display="none">
		<circle display="inline" fill="#FFFFFF" cx="80.251" cy="142.329" r="5.703"/>
		<circle display="inline" fill="#FFFFFF" cx="277.251" cy="142.329" r="5.703"/>
		<g display="inline" opacity="0.5">
			<circle cx="7.248" cy="141.329" r="5.703"/>
			<circle cx="20.936" cy="141.329" r="5.703"/>
			<circle cx="36.906" cy="141.329" r="5.703"/>
			<circle cx="56.297" cy="141.329" r="5.703"/>
			<circle cx="112.189" cy="141.329" r="5.703"/>
			<circle cx="156.675" cy="141.329" r="5.703"/>
			<circle cx="221.693" cy="141.329" r="5.703"/>
		</g>
	</g>
	<g display="none" opacity="0.5">
		<circle display="inline" cx="321.789" cy="38.329" r="5.703"/>
		<circle display="inline" cx="308.101" cy="38.329" r="5.704"/>
		<circle display="inline" cx="292.132" cy="38.329" r="5.703"/>
		<circle display="inline" cx="272.74" cy="38.329" r="5.703"/>
		<circle display="inline" cx="248.786" cy="38.329" r="5.703"/>
		<circle display="inline" cx="216.848" cy="38.329" r="5.703"/>
		<circle display="inline" cx="9.248" cy="38.329" r="5.703"/>
		<circle display="inline" cx="172.363" cy="38.329" r="5.703"/>
		<circle display="inline" cx="107.344" cy="38.329" r="5.703"/>
	</g>
	<g display="none">
		<polygon display="inline" fill="#3953A4" points="13.125,35.712 4.545,44.379 4.545,27.045 		"/>
		<polygon display="inline" fill="#3953A4" points="55.125,35.295 46.545,43.962 46.545,26.628 		"/>
		<polygon display="inline" fill="#3953A4" points="97.125,35.407 88.545,44.074 88.545,26.74 		"/>
		<polygon display="inline" fill="#3953A4" points="139.125,35.518 130.545,44.185 130.545,26.851 		"/>
		<polygon display="inline" fill="#3953A4" points="181.125,36.073 172.545,44.74 172.545,27.406 		"/>
		<polygon display="inline" fill="#3953A4" points="223.125,36.073 214.545,44.74 214.545,27.406 		"/>
		<polygon display="inline" fill="#3953A4" points="34.125,35.712 25.545,44.379 25.545,27.045 		"/>
		<polygon display="inline" fill="#3953A4" points="76.125,35.295 67.545,43.962 67.545,26.628 		"/>
		<polygon display="inline" fill="#3953A4" points="118.125,35.407 109.545,44.074 109.545,26.74 		"/>
		<polygon display="inline" fill="#3953A4" points="160.125,35.518 151.545,44.185 151.545,26.851 		"/>
		<polygon display="inline" fill="#3953A4" points="202.125,36.073 193.545,44.74 193.545,27.406 		"/>
		<polygon display="inline" fill="#3953A4" points="244.125,36.073 235.545,44.74 235.545,27.406 		"/>
		<polygon display="inline" fill="#3953A4" points="265.125,36.073 256.545,44.74 256.545,27.406 		"/>
		<polygon display="inline" fill="#3953A4" points="286.125,36.073 277.545,44.74 277.545,27.406 		"/>
		<polygon display="inline" fill="#3953A4" points="307.125,36.073 298.545,44.74 298.545,27.406 		"/>
		<polygon display="inline" fill="#3953A4" points="328.125,36.073 319.545,44.74 319.545,27.406 		"/>
	</g>
	<g display="none">
		<polygon display="inline" fill="#3953A4" points="229.965,141.407 238.545,150.074 238.545,132.74 		"/>
		<polygon display="inline" fill="#3953A4" points="184.965,141.518 193.545,150.185 193.545,132.851 		"/>
		<polygon display="inline" fill="#3953A4" points="139.964,142.073 148.545,150.74 148.545,133.406 		"/>
		<polygon display="inline" fill="#3953A4" points="94.965,142.073 103.545,150.74 103.545,133.406 		"/>
		<polygon display="inline" fill="#3953A4" points="251.965,141.295 260.545,149.962 260.545,132.628 		"/>
		<polygon display="inline" fill="#3953A4" points="206.965,141.407 215.545,150.074 215.545,132.74 		"/>
		<polygon display="inline" fill="#3953A4" points="161.965,141.518 170.545,150.185 170.545,132.851 		"/>
		<polygon display="inline" fill="#3953A4" points="116.965,142.073 125.545,150.74 125.545,133.406 		"/>
		<polygon display="inline" fill="#3953A4" points="49.965,142.073 58.545,150.74 58.545,133.406 		"/>
		<polygon display="inline" fill="#3953A4" points="26.965,142.073 35.545,150.74 35.545,133.406 		"/>
		<polygon display="inline" fill="#3953A4" points="4.965,142.073 13.545,150.74 13.545,133.406 		"/>
	</g>
	<path fill="#FFFFFF" fill-opacity="0.4" stroke="#FFFFFF" stroke-width="2" stroke-miterlimit="10" stroke-opacity="0.7" d="
		M464.545,172.024c0,4.537,3.75,8.216,8,8.216l0,0c4.248,0,8-3.679,8-8.216v-15.568c0-4.538-3.752-8.216-8-8.216l0,0
		c-4.25,0-8,3.678-8,8.216V172.024z"/>
	<path fill="#FFFFFF" fill-opacity="0.4" stroke="#FFFFFF" stroke-width="2" stroke-miterlimit="10" stroke-opacity="0.7" d="
		M446.545,172.024c0,4.537,3.75,8.216,8,8.216l0,0c4.248,0,8-3.679,8-8.216v-15.568c0-4.538-3.752-8.216-8-8.216l0,0
		c-4.25,0-8,3.678-8,8.216V172.024z"/>
	<path fill="#FFFFFF" fill-opacity="0.4" stroke="#FFFFFF" stroke-width="2" stroke-miterlimit="10" stroke-opacity="0.7" d="
		M429.545,172.024c0,4.537,3.75,8.216,8,8.216l0,0c4.248,0,8-3.679,8-8.216v-15.568c0-4.538-3.752-8.216-8-8.216l0,0
		c-4.25,0-8,3.678-8,8.216V172.024z"/>
	<path fill="#FFFFFF" fill-opacity="0.4" stroke="#FFFFFF" stroke-width="2" stroke-miterlimit="10" stroke-opacity="0.7" d="
		M411.545,172.024c0,4.537,3.75,8.216,8,8.216l0,0c4.248,0,8-3.679,8-8.216v-15.568c0-4.538-3.752-8.216-8-8.216l0,0
		c-4.25,0-8,3.678-8,8.216V172.024z"/>
	<path fill="#FFFFFF" fill-opacity="0.4" stroke="#FFFFFF" stroke-width="2" stroke-miterlimit="10" stroke-opacity="0.7" d="
		M392.545,172.024c0,4.537,3.75,8.216,8,8.216l0,0c4.248,0,8-3.679,8-8.216v-15.568c0-4.538-3.752-8.216-8-8.216l0,0
		c-4.25,0-8,3.678-8,8.216V172.024z"/>
	<path fill="#FFFFFF" fill-opacity="0.4" stroke="#FFFFFF" stroke-width="2" stroke-miterlimit="10" stroke-opacity="0.7" d="
		M371.545,172.024c0,4.537,3.75,8.216,8,8.216l0,0c4.248,0,8-3.679,8-8.216v-15.568c0-4.538-3.752-8.216-8-8.216l0,0
		c-4.25,0-8,3.678-8,8.216V172.024z"/>
	<path fill="#FFFFFF" fill-opacity="0.4" stroke="#FFFFFF" stroke-width="2" stroke-miterlimit="10" stroke-opacity="0.7" d="
		M346.545,172.024c0,4.537,3.75,8.216,8,8.216l0,0c4.248,0,8-3.679,8-8.216v-15.568c0-4.538-3.752-8.216-8-8.216l0,0
		c-4.25,0-8,3.678-8,8.216V172.024z"/>
	<path fill="#FFFFFF" fill-opacity="0.4" stroke="#FFFFFF" stroke-width="2" stroke-miterlimit="10" stroke-opacity="0.7" d="
		M315.545,172.024c0,4.537,3.75,8.216,8,8.216l0,0c4.248,0,8-3.679,8-8.216v-15.568c0-4.538-3.752-8.216-8-8.216l0,0
		c-4.25,0-8,3.678-8,8.216V172.024z"/>
	<path fill="#FFFFFF" fill-opacity="0.4" stroke="#FFFFFF" stroke-width="2" stroke-miterlimit="10" stroke-opacity="0.7" d="
		M275.545,172.024c0,4.537,3.75,8.216,8,8.216l0,0c4.248,0,8-3.679,8-8.216v-15.568c0-4.538-3.752-8.216-8-8.216l0,0
		c-4.25,0-8,3.678-8,8.216V172.024z"/>
	<path fill="#FFFFFF" fill-opacity="0.4" stroke="#FFFFFF" stroke-width="2" stroke-miterlimit="10" stroke-opacity="0.7" d="
		M218.545,172.024c0,4.537,3.75,8.216,8,8.216l0,0c4.248,0,8-3.679,8-8.216v-15.568c0-4.538-3.752-8.216-8-8.216l0,0
		c-4.25,0-8,3.678-8,8.216V172.024z"/>
	<g>
	</g>
	<g>
	</g>
	<g>
	</g>
	<g>
	</g>
	<g>
	</g>
	<g>
	</g>
	<g>
	</g>
	<g>
	</g>
	<g>
	</g>
	<g>
	</g>
	<g>
	</g>
	<g>
	</g>
	<g>
	</g>
	<g>
	</g>
	<g>
	</g>
	<g>
	</g>
	<g>
	</g>
	<g>
	</g>
</g>
</svg>
