<?xml version="1.0" encoding="utf-8"?>
<!-- Generator: Adobe Illustrator 16.0.4, SVG Export Plug-In . SVG Version: 6.00 Build 0)  -->
<!DOCTYPE svg PUBLIC "-//W3C//DTD SVG 1.1//EN" "http://www.w3.org/Graphics/SVG/1.1/DTD/svg11.dtd">
<svg version="1.1" id="Capa_1" xmlns="http://www.w3.org/2000/svg" xmlns:xlink="http://www.w3.org/1999/xlink" x="0px" y="0px"
	 width="81.5px" height="35.5px" viewBox="0 0 81.5 35.5" enable-background="new 0 0 81.5 35.5" xml:space="preserve">
<rect display="none" fill="#002B36" width="81.5" height="65.333"/>
<path fill="#EDE8D5" d="M52.818,6.357c-0.102-0.12-0.176-0.19-0.205-0.19c-0.598,0.004-2.528,4.17-3.2,5.337
	c-3.987,6.907-7.738,12.567-14.094,18.148c-2.581,2.267-3.744,4.106-8.753,3.416c11.796-7.51,18.538-18.386,24.979-31.171
	c0.527-1.044,1.777,0.405,2.918,2.062"/>
<path fill="#EDE8D5" d="M56.157,11.523c4.204,6.779,8.129,12.319,14.655,17.698c2.648,2.185,3.871,3.986,8.855,3.139
	C67.643,25.224,60.564,14.564,53.723,1.988c-0.498-0.917-1.512,0.17-2.498,1.618"/>
<path fill="#EDE8D5" d="M43.221,14.28c-1.969-2.593-2.331,0.072-3.845,2.134c-3.069,4.177-8.771,9.792-13.665,13.237
	c-3.328,2.343-5.105,4.006-10.675,3.416c2.265-1.933,5.079-2.927,7.686-4.696c6.763-4.591,13.782-12.385,17.935-19.215
	c0.784-1.289,3.782,2.079,3.845,2.775C44.564,12.655,43.193,13.532,43.221,14.28z"/>
<path fill="#EDE8D5" d="M1.372,31.36c9.896-2.462,20.128-8.484,26.262-14.731c1.252-1.276,2.197,2.568,3.416,2.775
	c-0.871,0.917-2.12,3.111-2.989,1.068c-4.432,4.028-10.147,7.545-16.44,10.248c-3.041,1.306-5.503,2.509-9.822,2.347l0.107-0.933
	L1.372,31.36z"/>
</svg>
